<svg width="100" height="100" viewBox="0 0 100 100" fill="none" xmlns="http://www.w3.org/2000/svg">
<rect x="5.20337" width="89.5543" height="78.1232" rx="10.0717" fill="#FFD4C0"/>
<path d="M11.1897 27.8146C11.1897 21.1397 16.6008 15.7286 23.2758 15.7286H33.6108C40.2857 15.7286 45.6968 21.1397 45.6968 27.8146V48.3365H11.1897V27.8146Z" fill="#FFF0EA"/>
<path d="M54.0835 27.8146C54.0835 21.1397 59.4946 15.7286 66.1695 15.7286H76.5046C83.1795 15.7286 88.5906 21.1397 88.5906 27.8146V48.3365H54.0835V27.8146Z" fill="#FFF0EA"/>
<path d="M0 54.9995C0 44.6965 8.35222 36.3443 18.6552 36.3443H81.306C91.609 36.3443 99.9612 44.6965 99.9612 54.9995V78.1232H0V54.9995Z" fill="#FFE5D9"/>
<rect y="78.1232" width="99.9612" height="12.228" fill="#FFB08C"/>
<path d="M0 87.4324H11.2285V96.7771C11.2285 98.5571 9.78555 100 8.00557 100H3.22295C1.44296 100 0 98.5571 0 96.7771V87.4324Z" fill="#FFB08C"/>
<path d="M88.7715 87.4324H100V96.7771C100 98.5571 98.557 100 96.7771 100H91.9944C90.2144 100 88.7715 98.5571 88.7715 96.7771V87.4324Z" fill="#FFB08C"/>
</svg>
