<svg width="150" height="150" viewBox="0 0 150 150" fill="none" xmlns="http://www.w3.org/2000/svg">
<rect x="7.80518" width="134.331" height="117.185" rx="10.0717" fill="#FFD4C0"/>
<path d="M16.7845 35.6789C16.7845 29.004 22.1956 23.5929 28.8706 23.5929H56.4592C63.1341 23.5929 68.5452 29.004 68.5452 35.6789V72.5048H16.7845V35.6789Z" fill="#FFF0EA"/>
<path d="M81.1252 35.6789C81.1252 29.004 86.5363 23.5929 93.2113 23.5929H120.8C127.475 23.5929 132.886 29.004 132.886 35.6789V72.5048H81.1252V35.6789Z" fill="#FFF0EA"/>
<path d="M0 73.1716C0 62.8686 8.35222 54.5164 18.6552 54.5164H131.287C141.59 54.5164 149.942 62.8686 149.942 73.1716V117.185H0V73.1716Z" fill="#FFE5D9"/>
<rect y="117.185" width="149.942" height="18.342" fill="#FFB08C"/>
<path d="M0 131.149H16.8428V146.777C16.8428 148.557 15.3998 150 13.6198 150H3.22295C1.44296 150 0 148.557 0 146.777V131.149Z" fill="#FFB08C"/>
<path d="M133.157 131.149H150V146.777C150 148.557 148.557 150 146.777 150H136.38C134.6 150 133.157 148.557 133.157 146.777V131.149Z" fill="#FFB08C"/>
</svg>
