<svg width="150" height="150" viewBox="0 0 150 150" fill="none" xmlns="http://www.w3.org/2000/svg">
<rect x="16.7644" y="10" width="116.421" height="101.56" rx="10.0717" fill="#FFD4C0"/>
<path d="M24.5466 42.5332C24.5466 35.8582 29.9577 30.4471 36.6327 30.4471H57.3199C63.9948 30.4471 69.4059 35.8583 69.4059 42.5332V72.8375H24.5466V42.5332Z" fill="#FFF0EA"/>
<path d="M80.3085 42.5332C80.3085 35.8582 85.7196 30.4471 92.3945 30.4471H113.082C119.757 30.4471 125.168 35.8583 125.168 42.5332V72.8375H80.3085V42.5332Z" fill="#FFF0EA"/>
<path d="M10 75.9028C10 65.5998 18.3522 57.2476 28.6552 57.2476H121.294C131.597 57.2476 139.95 65.5998 139.95 75.9028V111.56H10V75.9028Z" fill="#FFE5D9"/>
<rect x="10" y="111.56" width="129.95" height="15.8964" fill="#FFB08C"/>
<path d="M10 123.662H24.5971V136.777C24.5971 138.557 23.1541 140 21.3741 140H13.2229C11.443 140 10 138.557 10 136.777V123.662Z" fill="#FFB08C"/>
<path d="M125.403 123.662H140V136.777C140 138.557 138.557 140 136.777 140H128.626C126.846 140 125.403 138.557 125.403 136.777V123.662Z" fill="#FFB08C"/>
</svg>
