<svg width="150" height="150" viewBox="0 0 150 150" fill="none" xmlns="http://www.w3.org/2000/svg">
<path d="M4.08511 55.3199C4.5426 57.0976 6.16598 58.3203 10.4163 60.0894C13.8549 61.5116 15.1536 62.3614 15.493 63.4194C15.5373 63.5842 15.4782 66.3505 15.3602 69.5764C14.8879 82.194 14.7403 86.2785 14.1057 103.405C13.7811 112.155 13.663 115.555 13.5154 119.336C13.2645 125.814 13.2645 127.487 13.5007 128.034C14.0172 129.239 15.1683 130.115 16.8802 130.609C17.9281 130.921 18.0904 130.939 19.3301 130.939C21.0715 130.93 22.0455 130.713 23.2557 130.054C24.2887 129.499 24.9086 128.831 25.2627 127.877C25.5284 127.166 25.5284 127.01 25.0266 113.898C24.9381 111.826 24.6134 102.928 24.2887 94.1265C23.9641 85.3246 23.6394 76.2104 23.5508 73.8777C23.4623 71.5363 23.3295 68.3364 23.2852 66.7667C23.2262 65.1885 23.2262 63.6882 23.2999 63.4367C23.5656 62.3701 24.7315 61.581 28.1405 60.1674C30.6937 59.1008 32.8483 57.9128 33.542 57.1843C34.1175 56.5773 34.5603 55.8055 34.6783 55.1464C34.7373 54.8603 34.7078 52.6749 34.634 50.2902C34.4717 45.9542 34.3094 41.679 34.029 33.5968C33.66 23.2166 33.5715 21.3088 33.4239 20.9966C33.3353 20.8145 33.0549 20.5283 32.8041 20.3635C31.8743 19.7652 30.5313 19.9299 29.8377 20.7191C29.5278 21.066 29.5278 21.0746 29.454 35.4179C29.4097 43.6042 29.3212 49.8479 29.2474 49.9433C28.4209 51.0186 26.7681 51.1053 25.9121 50.1167L25.5431 49.6918L25.4694 35.3312C25.3956 22.1933 25.3808 20.9532 25.1447 20.7191C24.5101 20.034 23.4328 19.8085 22.5325 20.1728C22.2521 20.2768 21.8832 20.5283 21.7208 20.7191L21.4109 21.066L21.3371 36.4585L21.2633 51.8511L20.8944 52.224C20.0532 53.0999 18.5922 53.0478 17.751 52.1286L17.4263 51.7644L17.3525 36.3718C17.2787 22.2627 17.2639 20.9619 17.0278 20.7191C16.3932 20.034 15.3159 19.8085 14.4157 20.1728C14.1353 20.2768 13.7663 20.5283 13.604 20.7191C13.2941 21.066 13.2941 21.0746 13.2203 35.4179C13.176 43.6042 13.0875 49.8479 13.0137 49.9433C12.7185 50.3335 12.1577 50.6717 11.6707 50.7671C10.9033 50.9146 10.1654 50.6717 9.67837 50.1081L9.30942 49.6918L9.23563 35.3312C9.16184 22.1933 9.14708 20.9532 8.91095 20.7191C8.27636 20.034 7.19903 19.8085 6.2988 20.1728C6.0184 20.2768 5.64945 20.5283 5.48711 20.7191C5.14768 21.1093 5.14768 21.1787 4.80825 30.605C4.7197 33.1806 4.58688 37.0396 4.51309 39.1902C4.4393 41.3321 4.30648 45.1217 4.21793 47.6019C4.14414 50.0821 4.04083 52.7183 4.01132 53.4554C3.9818 54.1925 4.01132 55.0337 4.08511 55.3199Z" fill="#E032A6"/>
<path d="M138.066 130.181C139.746 129.412 138.119 109.614 138.066 37.548V22.2528C136.371 14.9283 123.937 41.1643 122.172 63.399C120.408 85.6338 132.768 82.3565 132.768 88.6038C132.768 94.8511 125.139 126.088 128.954 130.181C132.768 134.274 138.066 130.181 138.066 130.181Z" fill="#E032A6"/>
<path d="M138.066 22.2528C136.371 14.9283 123.937 41.1643 122.172 63.399C120.408 85.6338 132.768 82.3565 132.768 88.6038C132.768 94.8511 125.139 126.088 128.954 130.181C132.768 134.274 138.066 130.181 138.066 130.181C139.746 129.412 138.119 109.614 138.066 37.548C138.066 37.548 138.066 28.2848 138.066 22.2528ZM138.066 22.2528H136.371" stroke="#E032A6" stroke-width="0.35898"/>
<circle cx="75" cy="77" r="39.4286" fill="#FFA2CD" stroke="#E032A6" stroke-width="1.14286"/>
<path d="M74.772 64.8117C71.6274 56.2759 55.8 57.5439 55.8 70.4527C55.8 76.8843 60.6378 85.4422 74.772 94.163C88.9061 85.4422 93.744 76.8843 93.744 70.4527C93.744 57.6182 77.934 56.2253 74.772 64.8117Z" fill="#E032A6"/>
</svg>
