<svg width="150" height="150" viewBox="0 0 150 150" fill="none" xmlns="http://www.w3.org/2000/svg">
<mask id="mask0" mask-type="alpha" maskUnits="userSpaceOnUse" x="0" y="0" width="150" height="150">
<rect x="0.5" y="0.5" width="149" height="149" fill="white" stroke="black"/>
</mask>
<g mask="url(#mask0)">
<circle cx="74.7143" cy="75" r="39.4286" fill="#FFE5D9" stroke="#FFB08C" stroke-width="1.14286"/>
<g clip-path="url(#clip0)">
<path d="M74.7143 66.3543C72.4411 60.184 61 61.1006 61 70.432C61 75.0811 64.4971 81.2674 74.7143 87.5714C84.9314 81.2674 88.4286 75.0811 88.4286 70.432C88.4286 61.1543 77 60.1474 74.7143 66.3543V66.3543Z" fill="#FFB08C"/>
</g>
<g clip-path="url(#clip1)">
<path d="M8.0125 60.4687C8.4 61.75 9.775 62.6312 13.375 63.9062C16.2875 64.9312 17.3875 65.5437 17.675 66.3062C17.7125 66.425 17.6625 68.4187 17.5625 70.7437C17.1625 79.8375 17.0375 82.7812 16.5 95.125C16.225 101.431 16.125 103.881 16 106.606C15.7875 111.275 15.7875 112.481 15.9875 112.875C16.425 113.744 17.4 114.375 18.85 114.731C19.7375 114.956 19.875 114.969 20.925 114.969C22.4 114.962 23.225 114.806 24.25 114.331C25.125 113.931 25.65 113.45 25.95 112.762C26.175 112.25 26.175 112.137 25.75 102.687C25.675 101.194 25.4 94.7812 25.125 88.4375C24.85 82.0937 24.575 75.525 24.5 73.8437C24.425 72.1562 24.3125 69.85 24.275 68.7187C24.225 67.5812 24.225 66.5 24.2875 66.3187C24.5125 65.55 25.5 64.9812 28.3875 63.9625C30.55 63.1937 32.375 62.3375 32.9625 61.8125C33.45 61.375 33.825 60.8187 33.925 60.3437C33.975 60.1375 33.95 58.5625 33.8875 56.8437C33.75 53.7187 33.6125 50.6375 33.375 44.8125C33.0625 37.3312 32.9875 35.9562 32.8625 35.7312C32.7875 35.6 32.55 35.3937 32.3375 35.275C31.55 34.8437 30.4125 34.9625 29.825 35.5312C29.5625 35.7812 29.5625 35.7875 29.5 46.125C29.4625 52.025 29.3875 56.525 29.325 56.5937C28.625 57.3687 27.225 57.4312 26.5 56.7187L26.1875 56.4125L26.125 46.0625C26.0625 36.5937 26.05 35.7 25.85 35.5312C25.3125 35.0375 24.4 34.875 23.6375 35.1375C23.4 35.2125 23.0875 35.3937 22.95 35.5312L22.6875 35.7812L22.625 46.875L22.5625 57.9687L22.25 58.2375C21.5375 58.8687 20.3 58.8312 19.5875 58.1687L19.3125 57.9062L19.25 46.8125C19.1875 36.6437 19.175 35.7062 18.975 35.5312C18.4375 35.0375 17.525 34.875 16.7625 35.1375C16.525 35.2125 16.2125 35.3937 16.075 35.5312C15.8125 35.7812 15.8125 35.7875 15.75 46.125C15.7125 52.025 15.6375 56.525 15.575 56.5937C15.325 56.875 14.85 57.1187 14.4375 57.1875C13.7875 57.2937 13.1625 57.1187 12.75 56.7125L12.4375 56.4125L12.375 46.0625C12.3125 36.5937 12.3 35.7 12.1 35.5312C11.5625 35.0375 10.65 34.875 9.8875 35.1375C9.65 35.2125 9.3375 35.3937 9.2 35.5312C8.9125 35.8125 8.9125 35.8625 8.625 42.6562C8.55 44.5125 8.4375 47.2937 8.375 48.8437C8.3125 50.3875 8.2 53.1187 8.125 54.9062C8.0625 56.6937 7.975 58.5937 7.95 59.125C7.925 59.6562 7.95 60.2625 8.0125 60.4687Z" fill="#FFB08C"/>
</g>
<path d="M134.036 113.689C135.459 113.135 134.082 98.8658 134.036 46.9265V35.9029C132.6 30.624 122.069 49.5328 120.575 65.5579C119.08 81.5829 129.549 79.2209 129.549 83.7234C129.549 88.226 123.087 110.739 126.318 113.689C129.549 116.639 134.036 113.689 134.036 113.689Z" fill="#FFB08C"/>
<path d="M134.036 35.9029C132.6 30.624 122.069 49.5328 120.575 65.5579C119.08 81.5829 129.549 79.2209 129.549 83.7234C129.549 88.226 123.087 110.739 126.318 113.689C129.549 116.639 134.036 113.689 134.036 113.689C135.459 113.135 134.082 98.8658 134.036 46.9265C134.036 46.9265 134.036 40.2503 134.036 35.9029ZM134.036 35.9029H132.6" stroke="#FFB08C" stroke-width="0.35898"/>
</g>
<defs>
<clipPath id="clip0">
<rect width="27.4286" height="27.4286" fill="white" transform="translate(61 61.2857)"/>
</clipPath>
<clipPath id="clip1">
<rect width="80" height="80" fill="white" transform="translate(-19 115) rotate(-90)"/>
</clipPath>
</defs>
</svg>
