<svg width="165" height="62" viewBox="0 0 165 62" fill="none" xmlns="http://www.w3.org/2000/svg">
<path d="M61.4782 32.5516C61.9264 32.5516 62.2775 32.6712 62.5316 32.9102C62.7856 33.1344 62.9126 33.4556 62.9126 33.874C62.9126 34.9348 62.6212 35.8986 62.0385 36.7652C61.4557 37.6318 60.6414 38.3191 59.5955 38.8272C58.5496 39.3202 57.3692 39.5668 56.0543 39.5668C54.5751 39.5668 53.2453 39.268 52.0649 38.6703C50.8994 38.0726 49.9805 37.206 49.3081 36.0704C48.6507 34.9199 48.322 33.5677 48.322 32.0137C48.322 30.415 48.6432 28.9656 49.2857 27.6657C49.9282 26.3658 50.7948 25.3422 51.8856 24.5952C52.9763 23.8481 54.1716 23.4745 55.4716 23.4745C57.2198 23.4745 58.572 23.9527 59.5283 24.9089V24.5055C59.5283 24.2366 59.6478 24.0124 59.8869 23.8331C60.1259 23.6389 60.4397 23.5418 60.8282 23.5418C61.2466 23.5418 61.5753 23.6464 61.8143 23.8555C62.0534 24.0647 62.173 24.371 62.173 24.7745L62.1505 27.0605C62.1356 27.5984 62.0235 28.0093 61.8143 28.2932C61.6052 28.5622 61.269 28.6967 60.8058 28.6967C60.2978 28.6967 59.9242 28.5323 59.6852 28.2036C59.1622 27.4714 58.6392 26.9186 58.1163 26.5451C57.5933 26.1566 56.906 25.9623 56.0543 25.9623C55.2026 25.9623 54.3883 26.2313 53.6113 26.7692C52.8493 27.3071 52.2292 28.0392 51.7511 28.9656C51.2879 29.892 51.0563 30.908 51.0563 32.0137C51.0563 33.0447 51.2879 33.9487 51.7511 34.7257C52.2143 35.4877 52.8269 36.0704 53.5889 36.4738C54.3659 36.8773 55.2026 37.079 56.0991 37.079C56.7865 37.079 57.4364 36.952 58.049 36.698C58.6616 36.444 59.1547 36.0779 59.5283 35.5998C59.9167 35.1067 60.111 34.5239 60.111 33.8516C60.111 33.4631 60.2305 33.1493 60.4696 32.9102C60.7087 32.6712 61.0448 32.5516 61.4782 32.5516ZM75.0915 30.9603C75.4502 32.3947 75.6295 34.8676 75.6295 38.3789C75.6295 38.6927 75.5024 38.9467 75.2484 39.1409C74.9944 39.3202 74.6732 39.4099 74.2847 39.4099C73.8813 39.4099 73.5451 39.3128 73.2761 39.1185C73.0221 38.9093 72.8951 38.618 72.8951 38.2444C72.8951 36.4066 72.8652 34.9274 72.8055 33.8067C72.7606 32.6861 72.6635 31.8344 72.5141 31.2517C72.29 30.415 71.7969 29.9966 71.0349 29.9966C70.0935 29.9966 69.3913 30.3627 68.9281 31.0948C68.4649 31.812 68.2333 32.7085 68.2333 33.7843V38.4462C68.2333 38.7151 68.0988 38.9467 67.8299 39.1409C67.5609 39.3202 67.2397 39.4099 66.8661 39.4099C66.4926 39.4099 66.1713 39.3202 65.9024 39.1409C65.6484 38.9467 65.5214 38.7076 65.5214 38.4237C65.5214 35.4802 65.5587 32.6039 65.6334 29.7949C65.6932 28.0168 65.7828 26.0445 65.9024 23.878L65.9472 23.0039C65.9771 22.6602 66.1116 22.3838 66.3506 22.1746C66.5897 21.9654 66.9109 21.8608 67.3144 21.8608C67.7029 21.8608 68.0092 21.9579 68.2333 22.1522C68.4724 22.3315 68.5844 22.578 68.5695 22.8918L68.2557 28.6518L68.2333 29.1225C68.5919 28.734 69.0401 28.4202 69.578 28.1812C70.1309 27.9421 70.7659 27.8226 71.4831 27.8226C72.4842 27.8226 73.2687 28.0766 73.8364 28.5846C74.4192 29.0926 74.8375 29.8845 75.0915 30.9603ZM83.3214 39.522C81.4985 39.522 80.0267 39.0438 78.9061 38.0876C77.8004 37.1313 77.2475 35.7342 77.2475 33.8964C77.2475 32.716 77.4866 31.6775 77.9647 30.781C78.4429 29.8696 79.1302 29.1599 80.0267 28.6518C80.9232 28.1438 81.9766 27.8898 83.1869 27.8898C84.3822 27.8898 85.4431 28.1438 86.3695 28.6518C87.3108 29.1599 88.0355 29.8771 88.5435 30.8035C89.0665 31.7149 89.3279 32.7758 89.3279 33.986C89.3279 35.7641 88.7826 37.1313 87.6918 38.0876C86.6011 39.0438 85.1443 39.522 83.3214 39.522ZM83.2765 37.3928C84.2926 37.3928 85.092 37.1089 85.6747 36.5411C86.2724 35.9584 86.5712 35.0992 86.5712 33.9636C86.5712 32.8281 86.2798 31.8867 85.6971 31.1396C85.1144 30.3926 84.3075 30.019 83.2765 30.019C82.2754 30.019 81.4761 30.3701 80.8784 31.0724C80.2807 31.7747 79.9819 32.716 79.9819 33.8964C79.9819 35.0768 80.2807 35.9584 80.8784 36.5411C81.491 37.1089 82.2904 37.3928 83.2765 37.3928ZM92.949 39.2754C92.5456 39.2754 92.2168 39.1708 91.9628 38.9616C91.7238 38.7375 91.6042 38.4536 91.6042 38.11L91.4697 22.9142C91.4697 22.5556 91.5967 22.2717 91.8508 22.0625C92.1197 21.8384 92.4634 21.7263 92.8817 21.7263C93.2852 21.7263 93.6064 21.8309 93.8455 22.0401C94.0995 22.2493 94.2265 22.5332 94.2265 22.8918L94.3386 38.11C94.3386 38.4686 94.2041 38.7525 93.9351 38.9616C93.6662 39.1708 93.3375 39.2754 92.949 39.2754ZM103.072 39.6564C101.757 39.6564 100.637 39.4024 99.7102 38.8944C98.7988 38.3714 98.1115 37.6692 97.6483 36.7876C97.1851 35.8911 96.9535 34.89 96.9535 33.7843C96.9535 32.6786 97.2075 31.685 97.7155 30.8035C98.2385 29.9069 98.9482 29.2122 99.8447 28.7191C100.756 28.2111 101.78 27.957 102.915 27.957C103.946 27.957 104.873 28.1588 105.694 28.5622C106.516 28.9656 107.166 29.5409 107.644 30.288C108.122 31.035 108.362 31.9017 108.362 32.8878C108.362 33.4706 108.264 33.8889 108.07 34.1429C107.891 34.382 107.547 34.5015 107.039 34.5015L99.3516 34.5688C99.3516 34.9871 99.4936 35.4205 99.7775 35.8687C100.061 36.317 100.48 36.698 101.033 37.0117C101.585 37.3106 102.235 37.46 102.982 37.46C103.49 37.46 103.916 37.4002 104.26 37.2807C104.619 37.1462 104.91 36.9893 105.134 36.81C105.358 36.6307 105.62 36.3842 105.919 36.0704C106.143 35.8463 106.389 35.7342 106.658 35.7342C106.942 35.7342 107.211 35.8463 107.465 36.0704C107.734 36.2945 107.868 36.5486 107.868 36.8324C107.868 37.0416 107.786 37.2732 107.622 37.5272C107.263 38.0651 106.718 38.5582 105.986 39.0065C105.269 39.4398 104.297 39.6564 103.072 39.6564ZM105.829 32.7085C105.948 32.7085 106.023 32.6861 106.053 32.6413C106.098 32.5965 106.12 32.5143 106.12 32.3947C106.12 31.7074 105.814 31.1396 105.201 30.6914C104.589 30.2431 103.827 30.019 102.915 30.019C102.213 30.019 101.585 30.1759 101.033 30.4897C100.495 30.7885 100.076 31.1621 99.7775 31.6103C99.4936 32.0436 99.3516 32.4321 99.3516 32.7758L105.829 32.7085ZM115.052 39.4547C114.484 39.4547 113.939 39.1409 113.416 38.5134C112.908 37.8709 112.452 36.9296 112.049 35.6894C111.735 34.6584 111.466 33.5004 111.242 32.2154C111.018 30.9155 110.906 29.9219 110.906 29.2346C110.906 28.6967 111.01 28.3231 111.219 28.1139C111.444 27.9048 111.772 27.8002 112.206 27.8002C112.609 27.8002 112.923 27.8823 113.147 28.0467C113.386 28.1961 113.528 28.4576 113.573 28.8311C113.662 29.8621 113.752 30.7138 113.842 31.3862C113.931 32.0586 114.088 32.9028 114.312 33.9188C114.492 34.7107 114.641 35.3159 114.761 35.7342C114.895 36.1377 115.022 36.3394 115.142 36.3394C115.261 36.3394 115.433 35.9509 115.657 35.1739C115.881 34.382 116.173 33.2315 116.531 31.7224L116.688 31.0948C116.793 30.6466 116.95 30.3104 117.159 30.0862C117.383 29.8472 117.682 29.7276 118.055 29.7276C118.414 29.7276 118.705 29.8397 118.929 30.0638C119.154 30.273 119.34 30.6167 119.49 31.0948L119.96 32.6189C120.334 33.874 120.633 34.8078 120.857 35.4205C121.081 36.0181 121.268 36.317 121.417 36.317C121.522 36.317 121.619 36.1227 121.709 35.7342C121.813 35.3308 121.948 34.6584 122.112 33.7171C122.306 32.5367 122.433 31.6477 122.493 31.05C122.553 30.4374 122.605 29.7127 122.65 28.876C122.695 28.1588 123.15 27.8002 124.017 27.8002C124.495 27.8002 124.839 27.9272 125.048 28.1812C125.257 28.4352 125.362 28.8461 125.362 29.4139C125.362 30.0713 125.272 31.0052 125.093 32.2154C124.914 33.4257 124.689 34.5389 124.42 35.5549C123.748 38.1548 122.807 39.4547 121.597 39.4547C120.82 39.4547 120.132 38.9168 119.535 37.841C118.952 36.7503 118.474 35.1963 118.1 33.1792C117.532 37.3629 116.516 39.4547 115.052 39.4547ZM138.752 37.3255C139.006 37.3703 139.201 37.4675 139.335 37.6169C139.485 37.7514 139.559 37.9979 139.559 38.3565C139.559 38.6703 139.477 38.9318 139.313 39.1409C139.148 39.3501 138.932 39.4547 138.663 39.4547C138.02 39.4547 137.535 39.3725 137.206 39.2082C136.877 39.0438 136.586 38.7375 136.332 38.2893C135.704 39.2306 134.569 39.7013 132.925 39.7013C131.207 39.7013 129.922 39.2007 129.07 38.1996C128.219 37.1836 127.793 35.8538 127.793 34.2102C127.793 33.1194 128.009 32.1333 128.443 31.2517C128.891 30.3701 129.526 29.6753 130.348 29.1673C131.17 28.6593 132.118 28.4053 133.194 28.4053C133.807 28.4053 134.36 28.5323 134.853 28.7863C135.346 29.0254 135.719 29.3466 135.973 29.7501L136.041 29.2794C136.056 29.0702 136.153 28.8909 136.332 28.7415C136.511 28.5921 136.795 28.5174 137.184 28.5174C137.632 28.5174 137.953 28.622 138.147 28.8311C138.357 29.0403 138.439 29.3018 138.394 29.6156C138.304 30.0937 138.207 30.9379 138.103 32.1482C138.058 32.7459 138.035 33.5154 138.035 34.4567V35.5101C138.035 36.1377 138.073 36.5934 138.147 36.8773C138.222 37.1462 138.424 37.2956 138.752 37.3255ZM135.391 35.4877C135.406 34.8452 135.413 33.9113 135.413 32.6861C135.413 31.9988 135.189 31.4684 134.741 31.0948C134.307 30.7213 133.807 30.5345 133.239 30.5345C132.417 30.5345 131.76 30.8931 131.267 31.6103C130.774 32.3275 130.527 33.1867 130.527 34.1878C130.527 35.159 130.744 35.9658 131.177 36.6083C131.61 37.2508 132.245 37.5721 133.082 37.5721C133.769 37.5721 134.322 37.3928 134.741 37.0342C135.159 36.6756 135.376 36.1601 135.391 35.4877Z" fill="black"/>
<path d="M19.9759 54.043C20.0207 54.1775 20.0431 54.297 20.0431 54.4016C20.0431 54.7752 19.8862 55.0665 19.5725 55.2757C19.2736 55.47 18.915 55.5671 18.4966 55.5671C18.1679 55.5671 17.884 55.4998 17.645 55.3654C17.4059 55.2309 17.249 55.0292 17.1743 54.7602L16.3226 51.6673L11.1453 51.6449C11.0407 52.0035 10.9361 52.3471 10.8315 52.6759C10.7419 52.9896 10.6597 53.281 10.585 53.5499L10.2488 54.693C10.1592 54.9769 9.99479 55.1861 9.75572 55.3205C9.5316 55.47 9.26265 55.5447 8.94887 55.5447C8.5305 55.5447 8.16443 55.4401 7.85065 55.2309C7.55182 55.0217 7.4024 54.7453 7.4024 54.4016C7.4024 54.3269 7.41734 54.1999 7.44723 54.0206C7.44723 54.0206 8.50809 50.838 10.6298 44.4728L11.4143 42.0747C11.728 41.1035 12.0717 40.4087 12.4452 39.9903C12.8188 39.5719 13.3044 39.3628 13.9021 39.3628C14.4848 39.3628 14.948 39.5495 15.2916 39.9231C15.6353 40.2966 15.9565 40.9466 16.2554 41.873C16.8979 43.8154 17.6524 46.2584 18.5191 49.2019H19.1466C19.4604 49.2019 19.7069 49.3065 19.8862 49.5157C20.0655 49.7249 20.1552 50.0312 20.1552 50.4346C20.1552 51.2713 19.8937 51.6897 19.3707 51.6897H19.2587L19.9759 54.043ZM15.6278 49.1571C15.1796 47.4836 14.7911 46.094 14.4624 44.9883C14.4325 44.8837 14.4026 44.7941 14.3727 44.7194C14.3428 44.6447 14.3204 44.57 14.3055 44.4952C14.186 44.0769 14.0888 43.7706 14.0141 43.5763C13.9394 43.3821 13.8647 43.285 13.79 43.285C13.7153 43.285 13.6406 43.3821 13.5659 43.5763C13.4912 43.7706 13.4165 44.0096 13.3417 44.2935C13.267 44.5924 13.2147 44.7866 13.1849 44.8763L11.9073 49.1347L15.6278 49.1571ZM33.4753 51.4656C33.5799 52.2425 33.6695 52.9672 33.7442 53.6396C33.8189 54.297 33.8563 54.8499 33.8563 55.2981C33.8563 56.359 33.6247 57.3153 33.1615 58.1669C32.6983 59.0336 32.0409 59.7059 31.1892 60.1841C30.3525 60.6772 29.3812 60.9237 28.2756 60.9237C27.4089 60.9237 26.6095 60.7593 25.8774 60.4306C25.1602 60.1019 24.5849 59.6536 24.1516 59.0859C23.7333 58.533 23.5241 57.9279 23.5241 57.2704C23.5241 56.9118 23.6287 56.6504 23.8379 56.486C24.047 56.3216 24.3683 56.2395 24.8016 56.2395C25.3843 56.2395 25.7205 56.486 25.8102 56.9791C26.0343 58.1296 26.8337 58.7048 28.2083 58.7048C29.1496 58.7048 29.8743 58.4135 30.3823 57.8308C30.8904 57.263 31.1444 56.3963 31.1444 55.2309C31.1444 54.9171 31.122 54.5809 31.0771 54.2223C30.7335 54.551 30.2852 54.82 29.7324 55.0292C29.1795 55.2384 28.5594 55.343 27.8721 55.343C26.8113 55.343 25.8699 55.0964 25.0481 54.6033C24.2263 54.0953 23.5913 53.4155 23.1431 52.5638C22.6948 51.6972 22.4707 50.7484 22.4707 49.7174C22.4707 48.6565 22.6948 47.6928 23.1431 46.8262C23.6063 45.9446 24.2488 45.2573 25.0705 44.7642C25.8923 44.2562 26.8337 44.0022 27.8945 44.0022C28.9703 44.0022 29.8146 44.2636 30.4272 44.7866C30.5318 44.4878 30.6588 44.2114 30.8082 43.9573C30.9725 43.6286 31.2714 43.4643 31.7047 43.4643C32.0483 43.4643 32.3771 43.5614 32.6908 43.7556C33.0046 43.9349 33.169 44.174 33.1839 44.4728C33.1839 44.5027 33.169 44.5924 33.1391 44.7418C33.0494 44.9809 32.9075 45.4291 32.7133 46.0865C32.9971 47.9692 33.2512 49.7622 33.4753 51.4656ZM28.1411 53.1913C28.7238 53.1913 29.2766 53.0419 29.7996 52.7431C30.3226 52.4443 30.6438 52.1081 30.7634 51.7345C30.5841 50.2254 30.3674 48.7088 30.1134 47.1848C29.9789 46.9308 29.7249 46.6992 29.3514 46.49C28.9928 46.2808 28.5819 46.1762 28.1187 46.1762C27.267 46.1762 26.5647 46.5199 26.0119 47.2072C25.459 47.8945 25.1826 48.7462 25.1826 49.7622C25.1826 50.7185 25.4366 51.5328 25.9446 52.2052C26.4527 52.8626 27.1848 53.1913 28.1411 53.1913ZM42.1001 43.7332C43.0265 43.7332 43.796 44.0395 44.4086 44.6521C45.0212 45.2647 45.3275 46.0492 45.3275 47.0055C45.3275 47.9318 45.0287 48.6491 44.431 49.1571C43.8483 49.6651 43.0937 49.9191 42.1673 49.9191C41.7191 49.9191 41.4053 49.8519 41.226 49.7174C41.0467 49.568 40.9571 49.3364 40.9571 49.0226C40.9571 48.7238 41.0168 48.5146 41.1364 48.395C41.2708 48.2606 41.4576 48.1784 41.6967 48.1485C42.6081 48.0439 43.0639 47.6405 43.0639 46.9382C43.0639 46.6095 42.9742 46.3406 42.7949 46.1314C42.6305 45.9222 42.384 45.8176 42.0553 45.8176C41.5921 45.8176 41.1663 46.0567 40.7778 46.5348C40.4042 46.998 40.0979 47.5583 39.8588 48.2157C39.6347 48.8732 39.4928 49.4634 39.433 49.9863C39.3434 50.8978 39.2985 52.1081 39.2985 53.6172C39.2985 54.3643 39.2014 54.8723 39.0072 55.1412C38.8129 55.3953 38.4693 55.5223 37.9762 55.5223C37.4981 55.5223 37.1469 55.4251 36.9228 55.2309C36.6987 55.0366 36.5791 54.7303 36.5642 54.312V50.457C36.5642 49.6352 36.5418 48.9031 36.497 48.2606C36.4671 47.6181 36.4073 46.8411 36.3177 45.9297L36.1832 44.5401C36.1533 44.2114 36.2579 43.9499 36.497 43.7556C36.736 43.5464 37.0647 43.4419 37.4831 43.4419C38.1854 43.4419 38.5664 43.7706 38.6262 44.428C38.656 44.951 38.6859 45.5935 38.7158 46.3555C38.9997 45.5785 39.433 44.951 40.0157 44.4728C40.5985 43.9798 41.2933 43.7332 42.1001 43.7332ZM53.0968 55.3654C51.2739 55.3654 49.8022 54.8872 48.6815 53.931C47.5758 52.9747 47.023 51.5776 47.023 49.7398C47.023 48.5594 47.2621 47.5209 47.7402 46.6244C48.2183 45.713 48.9057 45.0033 49.8022 44.4952C50.6987 43.9872 51.7521 43.7332 52.9623 43.7332C54.1577 43.7332 55.2186 43.9872 56.1449 44.4952C57.0863 45.0033 57.8109 45.7205 58.319 46.6469C58.8419 47.5583 59.1034 48.6192 59.1034 49.8294C59.1034 51.6075 58.558 52.9747 57.4673 53.931C56.3765 54.8872 54.9197 55.3654 53.0968 55.3654ZM53.052 53.2362C54.068 53.2362 54.8674 52.9523 55.4502 52.3845C56.0478 51.8018 56.3467 50.9426 56.3467 49.807C56.3467 48.6715 56.0553 47.7301 55.4726 46.983C54.8898 46.236 54.083 45.8624 53.052 45.8624C52.0509 45.8624 51.2515 46.2135 50.6538 46.9158C50.0562 47.6181 49.7573 48.5594 49.7573 49.7398C49.7573 50.9202 50.0562 51.8018 50.6538 52.3845C51.2665 52.9523 52.0658 53.2362 53.052 53.2362ZM67.7 51.1294C68.1184 51.1294 68.4172 51.219 68.5966 51.3983C68.7908 51.5776 68.8879 51.8615 68.8879 52.25C68.8879 53.1615 68.5891 53.9085 67.9914 54.4913C67.4087 55.0591 66.6616 55.343 65.7501 55.343C64.51 55.343 63.606 54.8349 63.0382 53.8189C62.4854 52.7879 62.209 51.1593 62.209 48.9329C62.209 48.4698 62.2239 47.8347 62.2538 47.0279L61.4469 46.983C60.7297 46.9532 60.3711 46.602 60.3711 45.9297C60.3711 45.5561 60.4682 45.2872 60.6625 45.1228C60.8567 44.9435 61.178 44.8613 61.6262 44.8763L62.4331 44.9211C62.5377 43.8602 62.7095 42.6425 62.9486 41.2678C63.0681 40.6253 63.5089 40.3041 64.2709 40.3041C64.7341 40.3041 65.0852 40.4236 65.3243 40.6627C65.5783 40.9018 65.6754 41.1856 65.6157 41.5144C65.3766 43.1281 65.2197 44.3085 65.145 45.0556L66.5122 45.078C67.1696 45.0929 67.4983 45.4291 67.4983 46.0865C67.4983 46.4302 67.4087 46.6842 67.2294 46.8486C67.0501 47.0129 66.7438 47.0951 66.3105 47.0951H64.9657C64.9358 47.8721 64.9209 48.4847 64.9209 48.9329C64.9209 50.5168 64.9956 51.6225 65.145 52.25C65.2944 52.8776 65.5559 53.1913 65.9294 53.1913C66.1685 53.1913 66.3403 53.1092 66.4449 52.9448C66.5495 52.7655 66.6093 52.4741 66.6242 52.0707C66.6392 51.742 66.7288 51.5029 66.8932 51.3535C67.0576 51.2041 67.3265 51.1294 67.7 51.1294ZM80.4609 52.1379C80.4609 52.5713 80.4982 52.9224 80.5729 53.1913C80.6626 53.4603 80.7597 53.6844 80.8643 53.8637C80.9689 54.0281 81.0212 54.1327 81.0212 54.1775C81.0212 54.4763 80.9017 54.7378 80.6626 54.9619C80.4235 55.1711 80.1247 55.2757 79.7661 55.2757C79.4673 55.2757 79.161 55.1039 78.8472 54.7602C78.5334 54.4166 78.3466 54.058 78.2869 53.6844C77.7041 54.7901 76.6582 55.343 75.1491 55.343C73.8492 55.343 72.8481 54.8947 72.1458 53.9982C71.4585 53.0868 71.1148 51.8765 71.1148 50.3674V44.9883C71.1148 44.7044 71.2418 44.4728 71.4958 44.2935C71.7498 44.0993 72.0711 44.0022 72.4596 44.0022C72.8331 44.0022 73.1544 44.0993 73.4233 44.2935C73.6923 44.4728 73.8267 44.7044 73.8267 44.9883V50.3449C73.8267 51.1966 73.9612 51.8914 74.2302 52.4293C74.4991 52.9523 74.925 53.2138 75.5077 53.2138C76.2398 53.2138 76.7777 52.8776 77.1214 52.2052C77.4651 51.5179 77.6369 50.457 77.6369 49.0226V45.0107C77.6369 44.6521 77.7564 44.3757 77.9955 44.1815C78.2495 43.9872 78.5782 43.8901 78.9817 43.8901C79.4 43.8901 79.7362 43.9947 79.9902 44.2039C80.2592 44.3981 80.3936 44.6671 80.3936 45.0107L80.4609 52.1379ZM89.705 43.7332C90.6314 43.7332 91.4009 44.0395 92.0135 44.6521C92.6261 45.2647 92.9324 46.0492 92.9324 47.0055C92.9324 47.9318 92.6336 48.6491 92.0359 49.1571C91.4532 49.6651 90.6987 49.9191 89.7723 49.9191C89.324 49.9191 89.0102 49.8519 88.8309 49.7174C88.6516 49.568 88.562 49.3364 88.562 49.0226C88.562 48.7238 88.6218 48.5146 88.7413 48.395C88.8758 48.2606 89.0625 48.1784 89.3016 48.1485C90.2131 48.0439 90.6688 47.6405 90.6688 46.9382C90.6688 46.6095 90.5791 46.3406 90.3998 46.1314C90.2355 45.9222 89.9889 45.8176 89.6602 45.8176C89.197 45.8176 88.7712 46.0567 88.3827 46.5348C88.0091 46.998 87.7028 47.5583 87.4638 48.2157C87.2396 48.8732 87.0977 49.4634 87.0379 49.9863C86.9483 50.8978 86.9035 52.1081 86.9035 53.6172C86.9035 54.3643 86.8063 54.8723 86.6121 55.1412C86.4178 55.3953 86.0742 55.5223 85.5811 55.5223C85.103 55.5223 84.7518 55.4251 84.5277 55.2309C84.3036 55.0366 84.1841 54.7303 84.1691 54.312V50.457C84.1691 49.6352 84.1467 48.9031 84.1019 48.2606C84.072 47.6181 84.0122 46.8411 83.9226 45.9297L83.7881 44.5401C83.7582 44.2114 83.8628 43.9499 84.1019 43.7556C84.3409 43.5464 84.6697 43.4419 85.088 43.4419C85.7903 43.4419 86.1713 43.7706 86.2311 44.428C86.261 44.951 86.2908 45.5935 86.3207 46.3555C86.6046 45.5785 87.0379 44.951 87.6207 44.4728C88.2034 43.9798 88.8982 43.7332 89.705 43.7332ZM99.0432 61.1926C98.6099 61.1926 98.2588 61.0731 97.9898 60.834C97.7209 60.6099 97.5864 60.326 97.5864 59.9824C97.5864 59.8628 97.6163 59.6985 97.676 59.4893C98.0496 58.548 98.6622 56.8521 99.5139 54.4016C98.8266 53.9235 98.1617 53.154 97.5192 52.0931C96.8767 51.0323 96.3163 49.8892 95.8382 48.664C95.375 47.4238 95.0463 46.3181 94.8521 45.3469C94.8222 45.2274 94.8072 45.0929 94.8072 44.9435C94.8072 44.5998 94.9193 44.3384 95.1434 44.1591C95.3825 43.9798 95.6963 43.8901 96.0848 43.8901C96.4583 43.8901 96.7198 43.9648 96.8692 44.1142C97.0186 44.2487 97.1232 44.4579 97.183 44.7418C97.676 46.5647 98.199 48.1037 98.7519 49.3588C99.3196 50.5989 99.88 51.4133 100.433 51.8018C100.806 50.5317 101.225 49.0002 101.688 47.2072L102.36 44.6521C102.435 44.3533 102.555 44.1441 102.719 44.0246C102.883 43.905 103.13 43.8453 103.459 43.8453C103.892 43.8453 104.243 43.9424 104.512 44.1366C104.781 44.3159 104.923 44.5625 104.938 44.8763C104.938 44.9809 104.93 45.063 104.915 45.1228C104.153 48.1859 103.361 50.9874 102.54 53.5275C101.464 56.8595 100.679 59.1382 100.186 60.3634C100.067 60.6323 99.9248 60.834 99.7604 60.9685C99.611 61.1179 99.3719 61.1926 99.0432 61.1926ZM111.486 55.4998C110.455 55.4998 109.551 55.2533 108.774 54.7602C107.997 54.2671 107.429 53.6247 107.07 52.8327C106.966 52.5787 106.921 52.3845 106.936 52.25C106.966 51.9811 107.115 51.7345 107.384 51.5104C107.653 51.2863 107.945 51.1742 108.258 51.1742C108.467 51.1742 108.632 51.2265 108.751 51.3311C108.871 51.4207 109.005 51.5552 109.155 51.7345C109.573 52.2724 109.947 52.6684 110.275 52.9224C110.604 53.1615 111.015 53.281 111.508 53.281C111.971 53.281 112.36 53.1764 112.674 52.9672C113.002 52.758 113.167 52.4816 113.167 52.1379C113.167 51.7644 112.987 51.4805 112.629 51.2863C112.285 51.0771 111.725 50.838 110.948 50.5691C110.156 50.3001 109.513 50.0461 109.02 49.807C108.542 49.568 108.124 49.2243 107.765 48.7761C107.422 48.3129 107.25 47.7301 107.25 47.0279C107.25 46.3406 107.444 45.7354 107.832 45.2124C108.221 44.6895 108.744 44.2861 109.401 44.0022C110.074 43.7183 110.806 43.5763 111.598 43.5763C112.435 43.5763 113.159 43.7332 113.772 44.047C114.399 44.3608 114.878 44.7791 115.206 45.3021C115.535 45.8101 115.699 46.363 115.699 46.9606C115.699 47.3342 115.602 47.6106 115.408 47.7899C115.229 47.9692 114.922 48.0589 114.489 48.0589C114.071 48.0589 113.787 47.9916 113.637 47.8571C113.503 47.7227 113.413 47.5359 113.368 47.2968C113.264 46.2957 112.674 45.7952 111.598 45.7952C111.06 45.7952 110.656 45.9147 110.388 46.1538C110.119 46.3779 109.984 46.6469 109.984 46.9606C109.984 47.3342 110.163 47.6255 110.522 47.8347C110.881 48.0439 111.456 48.283 112.248 48.5519C113.01 48.791 113.637 49.0301 114.13 49.2691C114.623 49.5082 115.042 49.8519 115.386 50.3001C115.744 50.7484 115.923 51.3236 115.923 52.0259C115.923 52.8178 115.699 53.4752 115.251 53.9982C114.818 54.5062 114.257 54.8872 113.57 55.1412C112.898 55.3803 112.203 55.4998 111.486 55.4998ZM124.979 51.1294C125.398 51.1294 125.696 51.219 125.876 51.3983C126.07 51.5776 126.167 51.8615 126.167 52.25C126.167 53.1615 125.868 53.9085 125.271 54.4913C124.688 55.0591 123.941 55.343 123.029 55.343C121.789 55.343 120.885 54.8349 120.317 53.8189C119.765 52.7879 119.488 51.1593 119.488 48.9329C119.488 48.4698 119.503 47.8347 119.533 47.0279L118.726 46.983C118.009 46.9532 117.65 46.602 117.65 45.9297C117.65 45.5561 117.747 45.2872 117.942 45.1228C118.136 44.9435 118.457 44.8613 118.905 44.8763L119.712 44.9211C119.817 43.8602 119.989 42.6425 120.228 41.2678C120.347 40.6253 120.788 40.3041 121.55 40.3041C122.013 40.3041 122.364 40.4236 122.603 40.6627C122.857 40.9018 122.955 41.1856 122.895 41.5144C122.656 43.1281 122.499 44.3085 122.424 45.0556L123.791 45.078C124.449 45.0929 124.777 45.4291 124.777 46.0865C124.777 46.4302 124.688 46.6842 124.509 46.8486C124.329 47.0129 124.023 47.0951 123.59 47.0951H122.245C122.215 47.8721 122.2 48.4847 122.2 48.9329C122.2 50.5168 122.275 51.6225 122.424 52.25C122.574 52.8776 122.835 53.1913 123.209 53.1913C123.448 53.1913 123.619 53.1092 123.724 52.9448C123.829 52.7655 123.888 52.4741 123.903 52.0707C123.918 51.742 124.008 51.5029 124.172 51.3535C124.337 51.2041 124.606 51.1294 124.979 51.1294ZM132.137 61.1926C131.704 61.1926 131.352 61.0731 131.083 60.834C130.815 60.6099 130.68 60.326 130.68 59.9824C130.68 59.8628 130.71 59.6985 130.77 59.4893C131.143 58.548 131.756 56.8521 132.608 54.4016C131.92 53.9235 131.255 53.154 130.613 52.0931C129.97 51.0323 129.41 49.8892 128.932 48.664C128.469 47.4238 128.14 46.3181 127.946 45.3469C127.916 45.2274 127.901 45.0929 127.901 44.9435C127.901 44.5998 128.013 44.3384 128.237 44.1591C128.476 43.9798 128.79 43.8901 129.178 43.8901C129.552 43.8901 129.813 43.9648 129.963 44.1142C130.112 44.2487 130.217 44.4579 130.277 44.7418C130.77 46.5647 131.293 48.1037 131.845 49.3588C132.413 50.5989 132.974 51.4133 133.526 51.8018C133.9 50.5317 134.318 49.0002 134.782 47.2072L135.454 44.6521C135.529 44.3533 135.648 44.1441 135.813 44.0246C135.977 43.905 136.223 43.8453 136.552 43.8453C136.985 43.8453 137.337 43.9424 137.606 44.1366C137.874 44.3159 138.016 44.5625 138.031 44.8763C138.031 44.9809 138.024 45.063 138.009 45.1228C137.247 48.1859 136.455 50.9874 135.633 53.5275C134.557 56.8595 133.773 59.1382 133.28 60.3634C133.16 60.6323 133.018 60.834 132.854 60.9685C132.705 61.1179 132.466 61.1926 132.137 61.1926ZM141.957 55.4774C141.569 55.4774 141.24 55.3878 140.971 55.2085C140.717 55.0142 140.59 54.7752 140.59 54.4913V39.6765C140.59 39.3179 140.709 39.0415 140.949 38.8473C141.203 38.6381 141.531 38.5335 141.935 38.5335C142.338 38.5335 142.667 38.6381 142.921 38.8473C143.19 39.0565 143.324 39.3329 143.324 39.6765L143.279 46.5124C145.207 45.332 146.895 44.3085 148.345 43.4419C148.584 43.2924 148.83 43.2177 149.084 43.2177C149.368 43.2177 149.622 43.3597 149.846 43.6436C150.07 43.9125 150.183 44.2188 150.183 44.5625C150.183 44.7567 150.13 44.9136 150.026 45.0331C149.921 45.1527 149.749 45.2872 149.51 45.4366L143.728 48.9329L149.667 53.3482C149.891 53.5126 150.003 53.7591 150.003 54.0878C150.003 54.4315 149.876 54.7229 149.622 54.9619C149.368 55.1861 149.077 55.2981 148.748 55.2981C148.434 55.2981 148.106 55.1786 147.762 54.9395C147.359 54.6407 146.604 54.043 145.498 53.1465C145.214 52.9224 144.886 52.6684 144.512 52.3845C144.154 52.0857 143.743 51.7569 143.279 51.3983V54.4689C143.279 54.7677 143.152 55.0142 142.898 55.2085C142.659 55.3878 142.346 55.4774 141.957 55.4774ZM163.006 53.1689C163.26 53.2138 163.454 53.3109 163.588 53.4603C163.738 53.5948 163.812 53.8413 163.812 54.1999C163.812 54.5137 163.73 54.7752 163.566 54.9844C163.401 55.1935 163.185 55.2981 162.916 55.2981C162.273 55.2981 161.788 55.2159 161.459 55.0516C161.13 54.8872 160.839 54.5809 160.585 54.1327C159.957 55.074 158.822 55.5447 157.178 55.5447C155.46 55.5447 154.175 55.0441 153.323 54.043C152.472 53.027 152.046 51.6972 152.046 50.0536C152.046 48.9628 152.262 47.9767 152.696 47.0951C153.144 46.2135 153.779 45.5188 154.601 45.0107C155.423 44.5027 156.371 44.2487 157.447 44.2487C158.06 44.2487 158.613 44.3757 159.106 44.6297C159.599 44.8688 159.972 45.19 160.226 45.5935L160.294 45.1228C160.309 44.9136 160.406 44.7343 160.585 44.5849C160.764 44.4355 161.048 44.3608 161.437 44.3608C161.885 44.3608 162.206 44.4654 162.4 44.6745C162.61 44.8837 162.692 45.1452 162.647 45.459C162.557 45.9371 162.46 46.7813 162.356 47.9916C162.311 48.5893 162.288 49.3588 162.288 50.3001V51.3535C162.288 51.9811 162.326 52.4368 162.4 52.7207C162.475 52.9896 162.677 53.139 163.006 53.1689ZM159.644 51.3311C159.659 50.6886 159.666 49.7547 159.666 48.5295C159.666 47.8422 159.442 47.3118 158.994 46.9382C158.56 46.5647 158.06 46.3779 157.492 46.3779C156.67 46.3779 156.013 46.7365 155.52 47.4537C155.027 48.1709 154.78 49.0301 154.78 50.0312C154.78 51.0024 154.997 51.8092 155.43 52.4517C155.863 53.0942 156.498 53.4155 157.335 53.4155C158.022 53.4155 158.575 53.2362 158.994 52.8776C159.412 52.519 159.629 52.0035 159.644 51.3311Z" fill="black"/>
<mask id="path-3-inside-1" fill="white">
<path d="M14.303 37.0739C13.7995 37.1935 13.2921 36.8825 13.1971 36.3738C12.3917 32.0618 13.0766 27.5931 15.1555 23.7092C17.382 19.5495 21.0537 16.3481 25.478 14.7091C29.9024 13.07 34.7736 13.1066 39.1728 14.8118C43.2803 16.4038 46.7113 19.3478 48.9096 23.1438C49.1689 23.5915 48.9866 24.158 48.5268 24.3954V24.3954C48.0669 24.6327 47.5039 24.4508 47.2423 24.0043C45.2555 20.6144 42.1763 17.9856 38.4956 16.559C34.523 15.0191 30.1242 14.9862 26.129 16.4663C22.1337 17.9463 18.8181 20.8372 16.8075 24.5935C14.9447 28.0738 14.3214 32.0743 15.0227 35.9404C15.115 36.4496 14.8064 36.9544 14.303 37.0739V37.0739Z"/>
</mask>
<path d="M14.303 37.0739C13.7995 37.1935 13.2921 36.8825 13.1971 36.3738C12.3917 32.0618 13.0766 27.5931 15.1555 23.7092C17.382 19.5495 21.0537 16.3481 25.478 14.7091C29.9024 13.07 34.7736 13.1066 39.1728 14.8118C43.2803 16.4038 46.7113 19.3478 48.9096 23.1438C49.1689 23.5915 48.9866 24.158 48.5268 24.3954V24.3954C48.0669 24.6327 47.5039 24.4508 47.2423 24.0043C45.2555 20.6144 42.1763 17.9856 38.4956 16.559C34.523 15.0191 30.1242 14.9862 26.129 16.4663C22.1337 17.9463 18.8181 20.8372 16.8075 24.5935C14.9447 28.0738 14.3214 32.0743 15.0227 35.9404C15.115 36.4496 14.8064 36.9544 14.303 37.0739V37.0739Z" fill="white" stroke="black" stroke-width="4.63709" mask="url(#path-3-inside-1)"/>
<mask id="path-4-inside-2" fill="white">
<path d="M14.303 37.0739C13.7995 37.1935 13.2921 36.8825 13.1971 36.3738C12.3917 32.0618 13.0766 27.5931 15.1555 23.7092C17.382 19.5495 21.0537 16.3481 25.478 14.7091C29.9024 13.07 34.7736 13.1066 39.1728 14.8118C43.2803 16.4038 46.7113 19.3478 48.9096 23.1438C49.1689 23.5915 48.9866 24.158 48.5268 24.3954V24.3954C48.0669 24.6327 47.5039 24.4508 47.2423 24.0043C45.2555 20.6144 42.1763 17.9856 38.4956 16.559C34.523 15.0191 30.1242 14.9862 26.129 16.4663C22.1337 17.9463 18.8181 20.8372 16.8075 24.5935C14.9447 28.0738 14.3214 32.0743 15.0227 35.9404C15.115 36.4496 14.8064 36.9544 14.303 37.0739V37.0739Z"/>
</mask>
<path d="M14.303 37.0739C13.7995 37.1935 13.2921 36.8825 13.1971 36.3738C12.3917 32.0618 13.0766 27.5931 15.1555 23.7092C17.382 19.5495 21.0537 16.3481 25.478 14.7091C29.9024 13.07 34.7736 13.1066 39.1728 14.8118C43.2803 16.4038 46.7113 19.3478 48.9096 23.1438C49.1689 23.5915 48.9866 24.158 48.5268 24.3954V24.3954C48.0669 24.6327 47.5039 24.4508 47.2423 24.0043C45.2555 20.6144 42.1763 17.9856 38.4956 16.559C34.523 15.0191 30.1242 14.9862 26.129 16.4663C22.1337 17.9463 18.8181 20.8372 16.8075 24.5935C14.9447 28.0738 14.3214 32.0743 15.0227 35.9404C15.115 36.4496 14.8064 36.9544 14.303 37.0739V37.0739Z" fill="white" stroke="black" stroke-width="4.63709" mask="url(#path-4-inside-2)"/>
<line x1="1.19882" y1="32.6004" x2="10.4674" y2="32.9223" stroke="black" stroke-width="2.31855" stroke-linecap="round"/>
<line x1="50.3206" y1="7.54726" x2="44.6688" y2="14.9003" stroke="black" stroke-width="2.31855" stroke-linecap="round"/>
<line x1="30.0478" y1="2.06634" x2="30.7637" y2="11.3129" stroke="black" stroke-width="2.31855" stroke-linecap="round"/>
<line x1="13.9805" y1="7.85267" x2="19.4" y2="15.3786" stroke="black" stroke-width="2.31855" stroke-linecap="round"/>
<line x1="4.25325" y1="19.0388" x2="12.5782" y2="23.1262" stroke="black" stroke-width="2.31855" stroke-linecap="round"/>
</svg>
