<svg width="150" height="150" viewBox="0 0 150 150" fill="none" xmlns="http://www.w3.org/2000/svg">
<path d="M40.6349 68.8667H109.065V97.1244C109.065 97.1244 107.012 142.771 74.8501 142.771C42.6878 142.771 40.6349 97.1244 40.6349 97.1244V68.8667Z" fill="#FFDEF0"/>
<path d="M95.3792 99.8535C95.3792 102.877 92.9282 105.328 89.9047 105.328C86.8813 105.328 84.4303 102.877 84.4303 99.8535C84.4303 96.83 86.8813 102.591 89.9047 102.591C92.9282 102.591 95.3792 96.83 95.3792 99.8535Z" fill="#E032A6"/>
<path d="M65.2698 99.8535C65.2698 102.877 62.8189 105.328 59.7954 105.328C56.772 105.328 54.321 102.877 54.321 99.8535C54.321 96.83 56.772 102.591 59.7954 102.591C62.8189 102.591 65.2698 96.83 65.2698 99.8535Z" fill="#E032A6"/>
<path d="M85.7302 60.935L60.6282 33.2385L43.6965 48.5841C28.4001 62.4476 27.2385 86.0862 41.102 101.383L85.7302 60.935Z" fill="#E032A6"/>
<path d="M47.2243 48.5456C39.3858 41.8298 38.4757 30.0312 45.1915 22.1928C51.9073 14.3543 63.7058 13.4442 71.5443 20.16L105.614 49.3504C121.291 62.782 123.112 86.3791 109.68 102.056L47.2243 48.5456Z" fill="#EF65C1"/>
<path d="M80.3245 121.751C80.3245 124.775 77.8735 127.226 74.85 127.226C71.8266 127.226 69.3756 124.775 69.3756 121.751C69.3756 118.728 71.8266 124.488 74.85 124.488C77.8735 124.488 80.3245 118.728 80.3245 121.751Z" fill="#E032A6"/>
</svg>
