<svg width="830" height="1080" viewBox="0 0 830 1080" fill="none" xmlns="http://www.w3.org/2000/svg">
<g opacity="0.5">
<g clip-path="url(#clip0)">
<path d="M360.143 767.158C360.16 762.88 361.434 758.64 363.827 754.891C366.221 751.142 369.644 748.024 373.733 745.871C386.211 739.29 398.019 745.048 404.635 756.342C409.308 764.311 406.81 778.288 405.417 786.928C400.382 818.1 405.193 838.595 408.577 852.525C409.665 857.732 411.288 862.811 413.425 867.695C413.425 867.695 356.594 815.869 360.143 767.158Z" fill="#EF65C1"/>
<path d="M286.401 505.347C290.362 502.99 294.897 501.647 299.523 501.461C304.149 501.275 308.692 502.253 312.67 504.29C324.812 510.505 325.239 523.037 318.038 534.556C312.944 542.678 298.827 548.454 290.16 552.138C258.94 565.429 242.368 580.649 231.104 591.004C226.823 594.741 222.919 598.832 219.445 603.222C219.445 603.222 239.693 529.542 286.401 505.347Z" fill="#EF65C1"/>
<path d="M428.185 386.092C432.597 387.425 436.649 389.866 439.907 393.154C443.166 396.443 445.511 400.456 446.691 404.765C450.299 417.92 441.338 426.692 427.978 429.151C418.546 430.873 404.758 424.352 396.19 420.441C365.314 406.37 342.899 404.411 327.656 403.086C322.009 402.448 316.356 402.327 310.772 402.726C310.772 402.726 378.811 367.949 428.185 386.092Z" fill="#EF65C1"/>
<path d="M344.756 444.261C349.363 444.382 353.915 445.667 357.927 447.978C361.938 450.29 365.259 453.541 367.535 457.387C374.487 469.122 368.16 479.949 355.923 485.847C347.28 489.998 332.259 487.348 322.963 485.838C289.468 480.417 267.331 484.444 252.278 487.19C246.664 488.065 241.179 489.441 235.898 491.3C235.898 491.3 292.343 439.795 344.756 444.261Z" fill="#EF65C1"/>
<path d="M218.838 407.348C214.188 404.65 208.503 403.797 203.011 404.974C197.52 406.15 192.663 409.262 189.489 413.636C186.315 418.01 185.079 423.296 186.049 428.352C187.018 433.408 190.114 437.828 194.669 440.658C244.43 484.228 231.149 525.414 231.142 525.424C231.826 523.296 233.439 521.12 234.4 519.061C237.005 513.467 239.191 507.727 240.944 501.883C246.229 484.388 247.794 465.842 243.484 448.366C241.483 440.562 238.315 433.093 234.071 426.173C230.243 419.842 225.717 411.249 218.838 407.348Z" fill="#EF65C1"/>
<path d="M418.149 869.244C411.351 866.629 404.386 864.328 397.413 862.105C382.09 857.14 366.42 853.045 350.489 849.843C340.953 847.839 331.257 846.437 321.465 845.647C312.591 845.19 303.65 845.67 294.812 847.078C286.607 848.218 278.319 850.47 272.053 855.951C260.744 865.891 261.894 879.75 272.98 889.053C277.437 892.8 292.232 897.901 307.596 890.355C370.458 858.533 418.149 869.244 418.149 869.244Z" fill="#EF65C1"/>
<path d="M314.194 806.015C308.662 801.565 302.886 797.371 297.064 793.256C284.307 784.126 270.936 775.738 257.026 768.135C248.729 763.501 240.081 759.401 231.142 755.865C222.945 752.906 214.374 750.835 205.593 749.69C197.502 748.498 188.968 748.285 181.264 751.794C167.35 758.177 163.845 771.844 171.178 783.979C174.132 788.859 186.346 797.974 203.276 795.039C272.917 782.159 314.194 806.015 314.194 806.015Z" fill="#EF65C1"/>
<path d="M247.709 706.397C244.104 700.447 240.213 694.703 236.197 689.015C227.492 676.433 217.957 664.378 207.643 652.913C201.515 645.987 194.873 639.467 187.765 633.399C181.154 628.102 173.884 623.542 166.094 619.807C158.961 616.241 151.074 613.472 142.653 614.528C127.447 616.515 119.379 628.526 121.968 642.368C123.01 647.925 131.211 660.336 148.039 662.613C217.554 671.137 247.709 706.397 247.709 706.397Z" fill="#EF65C1"/>
<path d="M224.359 619.238C223.626 612.385 222.529 605.57 221.357 598.79C218.844 583.851 215.358 569.101 210.917 554.62C208.343 545.904 205.129 537.384 201.296 529.116C197.578 521.753 192.95 514.839 187.501 508.508C182.568 502.573 176.624 497.114 168.569 495.035C153.995 491.305 141.578 499.637 138.038 513.543C136.603 519.13 138.741 533.722 152.98 541.978C212.117 575.275 224.359 619.238 224.359 619.238Z" fill="#EF65C1"/>
<path d="M511.44 933.298C505.283 929.605 498.915 926.195 492.519 922.86C478.483 915.448 463.945 908.842 448.982 903.077C440.042 899.541 430.83 896.577 421.409 894.203C412.811 892.31 403.969 891.335 395.053 891.296C386.819 891.128 378.287 891.955 371.151 896.385C358.204 904.41 356.71 918.305 365.782 929.361C369.421 933.801 382.918 941.265 399.367 936.271C466.849 914.923 511.44 933.298 511.44 933.298Z" fill="#EF65C1"/>
<path d="M566.973 1031.45C562.141 1026.35 554.133 989.471 495.322 964.183C487.346 960.745 479.431 957.292 470.988 954.958C463.174 952.803 454.793 951.571 446.695 954.144C432.081 958.836 426.703 972.037 432.24 985.018C434.438 990.234 445.756 998.501 462.769 996.595C539.374 988.005 569.369 1034.83 566.973 1031.45Z" fill="#EF65C1"/>
<path d="M564.581 1030.11C565.702 1023.22 551.257 988.284 585.52 934.971C590.169 927.741 594.746 920.52 600.41 913.939C605.654 907.854 611.883 902.219 620.062 899.9C634.876 895.73 646.825 903.715 649.653 917.507C650.786 923.051 646.209 936.099 630.947 943.911C562.647 978.947 564.532 1034.2 564.581 1030.11Z" fill="#EF65C1"/>
<path d="M313.885 807.659C311.729 801.119 282.361 775.77 289.426 714.933C290.382 706.68 291.283 698.467 293.474 690.392C295.506 682.928 298.668 675.479 305.128 670.181C316.846 660.663 331.572 663.024 340.541 674.156C344.133 678.633 345.913 692.015 335.469 704.944C288.558 762.993 315.716 811.362 313.885 807.659Z" fill="#EF65C1"/>
<path d="M511.368 939.441C509.359 932.856 480.586 906.927 489.006 846.188C490.143 837.952 491.231 829.744 493.609 821.709C495.799 814.283 499.12 806.872 505.696 801.708C517.616 792.405 532.27 795.049 540.957 806.36C544.456 810.911 545.93 824.341 535.206 837.074C487.071 894.26 513.146 943.156 511.368 939.441Z" fill="#EF65C1"/>
<path d="M218.838 407.348C214.188 404.65 208.503 403.797 203.011 404.974C197.52 406.15 192.663 409.262 189.489 413.636C186.315 418.01 185.079 423.296 186.049 428.352C187.018 433.408 190.114 437.828 194.669 440.658C244.43 484.228 231.149 525.414 231.142 525.424C231.826 523.296 233.439 521.12 234.4 519.061C237.005 513.467 239.191 507.727 240.944 501.883C246.229 484.388 247.794 465.842 243.484 448.366C241.483 440.562 238.315 433.093 234.071 426.173C230.243 419.842 225.717 411.249 218.838 407.348Z" fill="#EF65C1"/>
<path d="M303.303 590.992C308.817 590.218 314.353 591.455 318.735 594.439C323.117 597.424 325.998 601.92 326.766 606.973C327.533 612.025 326.126 617.235 322.845 621.493C319.563 625.751 314.666 628.722 309.194 629.774C242.689 652.191 234.824 694.365 234.817 694.375C235.384 691.379 234.867 687.947 235.109 684.919C235.709 676.977 237.089 669.074 239.233 661.307C245.505 638.717 258.709 617.566 279.298 603.282C286.152 598.537 294.745 592.21 303.303 590.992Z" fill="#EF65C1"/>
<path d="M269.213 469.121C215.266 554.971 216.769 664.647 272.551 745.004C298.659 782.613 333.72 812.236 374.566 835.966C400.958 851.287 429.062 864.034 455.136 879.884C480.635 895.412 503.648 914.1 523.565 935.455C566.772 981.708 582.229 1037.53 564.721 1098.76C562.143 1107.77 547.36 1103.95 549.958 1094.94C558.708 1064.31 560.163 1033.12 549.444 1003.48C539.445 975.803 520.099 952.158 498.325 931.739C452.01 888.289 390.74 866.755 338.429 830.818C273.543 786.23 226.651 720.053 216.42 644.007C208.197 582.865 221.809 516.514 256.132 461.915C261.243 453.788 274.309 461.006 269.213 469.121Z" fill="#EF65C1"/>
</g>
<path d="M565.138 88.4824C569.099 86.1259 573.634 84.7831 578.26 84.5971C582.886 84.411 587.43 85.3887 591.407 87.4259C603.549 93.6404 603.977 106.173 596.775 117.691C591.682 125.814 577.564 131.59 568.897 135.273C537.677 148.565 521.105 163.785 509.841 174.14C505.56 177.877 501.656 181.967 498.182 186.357C498.182 186.357 518.43 112.677 565.138 88.4824Z" fill="#EF65C1"/>
<path d="M543.673 176.597C547.839 174.627 552.481 173.721 557.104 173.975C561.727 174.228 566.157 175.633 569.923 178.038C581.42 185.376 580.657 197.893 572.396 208.676C566.554 216.279 551.953 220.689 542.975 223.534C510.635 233.804 492.694 247.382 480.498 256.622C475.882 259.936 471.607 263.638 467.733 267.679C467.733 267.679 494.88 196.252 543.673 176.597Z" fill="#EF65C1"/>
<path d="M509.387 294.445C513.972 294.916 518.413 296.542 522.237 299.152C526.062 301.762 529.126 305.256 531.103 309.263C537.143 321.493 530.012 331.808 517.362 336.759C508.429 340.241 493.652 336.457 484.498 334.245C451.511 326.294 429.132 328.627 413.915 330.221C408.25 330.667 402.676 331.623 397.27 333.075C397.27 333.075 457.466 286.009 509.387 294.445Z" fill="#EF65C1"/>
<path d="M447.607 52.4964C442.395 51.1796 436.694 51.921 431.737 54.5604C426.78 57.1998 422.964 61.5254 421.113 66.603C419.263 71.6806 419.526 77.1026 421.847 81.6981C424.167 86.2935 428.358 89.6935 433.515 91.1638C493.328 119.393 491.868 162.643 491.864 162.654C491.937 160.42 492.891 157.885 493.25 155.641C494.218 149.547 494.744 143.427 494.825 137.326C495.102 119.053 491.514 100.79 482.57 85.1692C478.502 78.2146 473.406 71.9036 467.424 66.4146C462.005 61.3781 455.292 54.3584 447.607 52.4964Z" fill="#EF65C1"/>
<path d="M455.488 130.086C450.668 127.705 444.938 127.233 439.538 128.773C434.137 130.314 429.498 133.742 426.623 138.318C423.748 142.894 422.868 148.251 424.172 153.231C425.476 158.211 428.861 162.415 433.594 164.935C486.15 205.088 475.646 247.068 475.639 247.079C476.18 244.91 477.644 242.632 478.466 240.513C480.691 234.757 482.49 228.884 483.85 222.937C487.955 205.128 488.281 186.519 482.814 169.369C480.297 161.716 476.638 154.476 471.942 147.853C467.701 141.792 462.611 133.52 455.488 130.086Z" fill="#EF65C1"/>
<path d="M439.514 215.784C436.055 211.667 430.997 208.936 425.433 208.178C419.868 207.421 414.243 208.699 409.773 211.736C405.303 214.773 402.346 219.326 401.541 224.41C400.737 229.495 402.149 234.704 405.473 238.912C437.489 296.786 411.016 331.018 411.006 331.026C412.372 329.256 414.628 327.757 416.231 326.146C420.579 321.768 424.585 317.111 428.217 312.21C439.127 297.547 446.895 280.634 448.773 262.732C449.539 254.712 449.095 246.612 447.452 238.662C446.001 231.407 444.66 221.788 439.514 215.784Z" fill="#EF65C1"/>
<path d="M375.262 270.175C372.146 265.794 367.324 262.664 361.839 261.461C356.353 260.258 350.643 261.079 345.943 263.747C341.243 266.414 337.93 270.714 336.719 275.718C335.507 280.721 336.496 286.027 339.47 290.489C366.725 350.752 337.582 382.742 337.572 382.749C339.076 381.094 341.445 379.783 343.173 378.306C347.859 374.292 352.226 369.973 356.242 365.379C368.296 351.642 377.4 335.409 380.713 317.717C382.122 309.784 382.331 301.675 381.334 293.618C380.47 286.27 379.908 276.574 375.262 270.175Z" fill="#EF65C1"/>
<path d="M288.459 335.998C284.45 332.416 279.054 330.432 273.438 330.475C267.822 330.518 262.437 332.583 258.445 336.226C254.453 339.869 252.174 344.796 252.102 349.943C252.029 355.091 254.169 360.046 258.058 363.738C297.989 416.463 276.659 454.116 276.651 454.125C277.751 452.178 279.77 450.374 281.128 448.551C284.808 443.599 288.11 438.419 291.007 433.05C299.718 416.984 304.998 399.137 304.309 381.15C303.925 373.102 302.332 365.148 299.574 357.513C297.104 350.539 294.407 341.208 288.459 335.998Z" fill="#EF65C1"/>
<path d="M293.374 768.268C226.888 691.717 211.535 583.111 254.321 495.143C274.346 453.972 304.444 419.318 341.163 389.599C364.89 370.408 390.704 353.498 414.035 333.832C436.849 314.574 456.72 292.575 473.123 268.416C508.717 216.077 515.422 158.548 488.721 100.73C484.791 92.2195 470.77 98.2674 474.72 106.771C488.069 135.697 494.295 166.293 488.253 197.227C482.621 226.107 467.134 252.442 448.752 275.962C409.656 326.007 352.419 356.691 306.245 400.232C248.972 454.253 212.796 526.844 214.359 603.56C215.621 665.239 239.256 728.714 281.555 777.397C287.853 784.643 299.655 775.504 293.374 768.268Z" fill="#EF65C1"/>
</g>
<defs>
<clipPath id="clip0">
<rect width="762.974" height="447.833" fill="white" transform="matrix(-0.236035 -0.971745 -0.971745 0.236035 687.349 1072.62)"/>
</clipPath>
</defs>
</svg>
