<svg width="846" height="1032" viewBox="0 0 846 1032" fill="none" xmlns="http://www.w3.org/2000/svg">
<g clip-path="url(#clip0)">
<path d="M287.748 988.668C289.209 982.76 292.393 977.326 296.96 972.947C301.528 968.568 307.307 965.408 313.682 963.804C333.141 958.898 347.531 970.822 352.885 988.656C356.668 1001.24 348.522 1019.72 343.695 1031.2C326.269 1072.6 326.037 1102.55 326.037 1122.94C325.793 1130.5 326.332 1138.07 327.646 1145.54C327.646 1145.54 266.486 1054.81 287.748 988.668Z" fill="#252422"/>
<path d="M273.719 601.988C279.986 600.061 286.706 599.727 293.163 601.023C299.62 602.319 305.573 605.197 310.387 609.348C325.085 622.016 321.468 639.484 307.645 652.989C297.877 662.507 276.422 665.751 263.204 667.933C215.584 675.823 187.565 691.298 168.517 701.831C161.344 705.559 154.573 709.903 148.297 714.805C148.297 714.805 201.027 619.751 273.719 601.988Z" fill="#252422"/>
<path d="M509.76 484.743C515.411 488.067 520.192 492.801 523.593 498.441C526.994 504.081 528.887 510.416 529.072 516.77C529.641 536.165 514.31 545.283 495.015 544.196C481.399 543.41 464.527 529.765 453.997 521.483C416.04 491.664 385.712 481.429 365.085 474.479C357.493 471.701 349.719 469.636 341.866 468.312C341.866 468.312 447.598 443.083 509.76 484.743Z" fill="#252422"/>
<path d="M374.898 537.14C381.226 538.855 387.087 542.159 391.857 546.701C396.626 551.243 400.124 556.853 401.98 562.933C407.649 581.49 395.268 594.332 376.371 598.376C363.03 601.213 343.155 592.506 330.812 587.297C286.329 568.556 254.376 566.69 232.646 565.432C224.59 564.756 216.546 564.817 208.623 565.613C208.623 565.613 303.944 513.368 374.898 537.14Z" fill="#252422"/>
<path d="M213.228 443.832C207.705 438.541 200.133 435.454 192.147 435.237C184.16 435.019 176.401 437.689 170.545 442.67C164.689 447.651 161.206 454.543 160.848 461.858C160.49 469.173 163.286 476.323 168.633 481.764C222.791 558.702 190.602 611.176 190.589 611.188C192.25 608.475 195.21 606.01 197.231 603.486C202.709 596.627 207.659 589.427 212.044 581.937C225.224 559.527 233.615 534.416 233.525 508.81C233.379 497.349 231.508 485.962 227.965 474.971C224.799 464.933 221.427 451.534 213.228 443.832Z" fill="#252422"/>
<path d="M211.182 1026.95C205.03 1018.94 198.453 1011.21 191.786 1003.56C177.217 986.661 161.551 970.575 144.874 955.395C134.961 946.202 124.383 937.631 113.213 929.741C102.876 922.899 91.7227 917.158 79.9688 912.627C69.1835 908.263 57.4586 905.102 45.6308 907.367C24.2531 911.518 14.8191 929.234 20.8811 948.471C23.3264 956.209 37.1492 972.91 61.5385 974.538C162.133 980.117 211.182 1026.95 211.182 1026.95Z" fill="#252422"/>
<path d="M152.725 866.922C149.739 857.486 146.29 848.239 142.647 839.028C134.839 818.713 125.706 798.846 115.298 779.535C109.152 767.902 102.16 756.659 94.3707 745.884C87.0116 736.342 78.4925 727.597 68.9775 719.818C60.3157 712.493 50.3412 706.018 38.3461 704.65C16.6595 702.291 1.4725 716.185 0.404257 736.189C-0.0204646 744.221 7.14832 764.131 29.6457 772.93C122.879 808.055 152.725 866.922 152.725 866.922Z" fill="#252422"/>
<path d="M149.713 738.595C151 728.876 151.772 719.087 152.429 709.321C153.971 687.826 154.104 666.266 152.828 644.756C152.196 631.844 150.614 618.986 148.092 606.27C145.424 594.844 141.348 583.732 135.942 573.15C131.116 563.29 124.732 553.748 114.294 548.169C95.4004 538.12 75.4384 545.468 65.8758 563.502C62.0147 570.744 60.0712 591.633 76.9829 607.827C147.551 673.712 149.713 738.595 149.713 738.595Z" fill="#252422"/>
<path d="M210.204 1029.12C209.419 1019.36 177.333 974.455 207.527 892.729C211.62 881.642 215.622 870.59 221.363 860.164C226.678 850.528 233.551 841.292 244.259 836.138C263.654 826.914 283.217 835.124 291.879 853.523C295.341 860.919 293.308 880.014 274.53 894.38C190.191 958.874 211.491 1034.86 210.204 1029.12Z" fill="#252422"/>
<path d="M213.228 443.832C207.705 438.541 200.133 435.454 192.147 435.237C184.16 435.019 176.401 437.689 170.545 442.67C164.689 447.651 161.206 454.543 160.848 461.858C160.49 469.173 163.286 476.323 168.633 481.764C222.791 558.702 190.602 611.176 190.589 611.188C192.25 608.475 195.21 606.01 197.231 603.486C202.709 596.627 207.659 589.427 212.044 581.937C225.224 559.527 233.615 534.416 233.525 508.81C233.379 497.349 231.508 485.962 227.965 474.971C224.799 464.933 221.427 451.534 213.228 443.832Z" fill="#252422"/>
<path d="M268.326 726.058C276.208 726.839 283.447 730.407 288.502 736.004C293.557 741.601 296.03 748.784 295.394 756.026C294.759 763.268 291.065 769.997 285.099 774.782C279.133 779.567 271.365 782.029 263.448 781.646C163.986 790.304 138.954 845.963 138.941 845.975C140.73 842.023 141.167 837.105 142.519 833.001C146.015 822.223 150.577 811.761 156.148 801.744C172.404 772.623 197.758 747.819 231.015 734.986C242.084 730.728 256.087 724.866 268.326 726.058Z" fill="#252422"/>
<path d="M262.123 546.14C158.722 646.702 123.973 798.819 174.103 928.632C197.565 989.387 236.086 1042.11 284.582 1088.63C315.921 1118.67 350.491 1145.73 381.212 1176.39C411.248 1206.42 436.785 1239.98 457.147 1276.19C501.344 1354.64 503.97 1436.99 459.207 1515.75C452.617 1527.35 433.466 1517.1 440.081 1505.51C462.463 1466.11 474.947 1423.48 470.082 1378.91C465.552 1337.3 446.748 1298.12 423.504 1262.58C374.069 1186.96 296.603 1136.62 236.356 1069.38C161.631 985.955 119.03 878.729 130.421 770.17C139.584 682.889 180.679 595.737 246.46 531.786C256.254 522.268 271.891 536.634 262.123 546.14Z" fill="#252422"/>
</g>
<path d="M799.008 119.322C805.275 117.395 811.995 117.061 818.452 118.357C824.909 119.653 830.862 122.531 835.676 126.682C850.373 139.35 846.757 156.818 832.934 170.323C823.166 179.841 801.711 183.085 788.493 185.267C740.873 193.157 712.854 208.632 693.806 219.165C686.633 222.893 679.862 227.237 673.586 232.139C673.586 232.139 726.316 137.085 799.008 119.322Z" fill="#252422"/>
<path d="M739.748 233.922C746.169 232.598 752.89 232.903 759.196 234.806C765.501 236.709 771.154 240.138 775.552 244.727C788.982 258.732 783.724 275.778 768.682 287.911C758.055 296.46 736.389 297.653 723.024 298.571C674.87 301.909 645.509 314.655 625.548 323.333C618.053 326.364 610.901 330.046 604.189 334.331C604.189 334.331 665.699 244.708 739.748 233.922Z" fill="#252422"/>
<path d="M652.783 385.318C658.963 387.508 664.556 391.248 668.966 396.14C673.376 401.031 676.438 406.891 677.826 413.094C682.069 432.028 668.748 443.893 649.599 446.489C636.081 448.303 616.925 438.111 605.014 431.979C562.083 409.912 530.364 405.623 508.793 402.717C500.811 401.431 492.786 400.881 484.825 401.073C484.825 401.073 583.841 356.222 652.783 385.318Z" fill="#252422"/>
<path d="M648.621 30.1128C641.857 26.5421 633.728 25.6529 625.989 27.637C618.25 29.6211 611.523 34.3195 607.26 40.7172C602.996 47.1149 601.54 54.6986 603.205 61.8303C604.869 68.962 609.521 75.0694 616.156 78.8334C689.361 137.939 672.821 197.237 672.812 197.251C673.663 194.187 675.833 191.004 677.082 188.022C680.466 179.922 683.249 171.639 685.409 163.233C691.927 138.065 693.1 111.615 685.981 87.018C682.693 76.0384 677.767 65.603 671.342 56.0068C665.541 47.2248 658.619 35.2672 648.621 30.1128Z" fill="#252422"/>
<path d="M633.462 140.016C627.598 135.106 619.836 132.53 611.854 132.846C603.871 133.161 596.307 136.343 590.796 141.704C585.285 147.064 582.27 154.173 582.4 161.496C582.531 168.818 585.798 175.766 591.495 180.838C650.665 253.992 622.047 308.497 622.035 308.509C623.511 305.692 626.3 303.035 628.148 300.382C633.156 293.173 637.615 285.658 641.491 277.893C653.147 254.653 659.845 229.039 658.047 203.495C657.136 192.07 654.51 180.833 650.242 170.102C646.414 160.298 642.155 147.154 633.462 140.016Z" fill="#252422"/>
<path d="M582.605 253.118C579.206 246.266 573.131 240.792 565.693 237.876C558.255 234.961 550.05 234.839 542.851 237.536C535.652 240.234 530.036 245.534 527.216 252.293C524.397 259.052 524.6 266.727 527.781 273.66C552.608 364.413 504.517 402.845 504.501 402.852C506.984 400.864 510.605 399.55 513.362 397.862C520.844 393.27 527.944 388.177 534.612 382.621C554.615 366.015 571.033 345.244 579.64 321.127C583.393 310.297 585.498 298.951 585.897 287.41C586.326 276.894 587.702 263.146 582.605 253.118Z" fill="#252422"/>
<path d="M475.523 306.733C472.686 299.63 467.071 293.684 459.892 290.179C452.713 286.675 444.544 285.893 437.151 288.002C429.758 290.111 423.734 294.943 420.38 301.453C417.025 307.963 416.61 315.629 419.223 322.795C436.665 415.252 385.638 449.69 385.621 449.695C388.256 447.913 391.971 446.895 394.855 445.434C402.682 441.459 410.169 436.954 417.262 431.953C438.537 417.011 456.573 397.628 467.094 374.282C471.706 363.79 474.717 352.65 476.044 341.178C477.318 330.731 479.796 317.138 475.523 306.733Z" fill="#252422"/>
<path d="M333.427 368.577C329.087 362.28 322.295 357.726 314.517 355.899C306.74 354.073 298.601 355.12 291.86 358.815C285.118 362.51 280.314 368.556 278.485 375.648C276.657 382.739 277.951 390.307 282.087 396.716C319.582 483.01 277.454 527.898 277.439 527.907C279.614 525.586 283.011 523.769 285.5 521.706C292.251 516.095 298.554 510.043 304.362 503.594C321.798 484.31 335.09 461.412 340.176 436.316C342.348 425.062 342.817 413.532 341.568 402.051C340.496 391.581 339.9 377.777 333.427 368.577Z" fill="#252422"/>
<path d="M195.077 967.783C128.872 839.638 144.117 684.349 232.799 577.111C274.305 526.922 327.547 489.124 388.285 460.37C427.529 441.808 468.891 427.1 507.747 407.749C545.75 388.788 580.605 365.049 611.392 337.159C678.17 276.761 706.756 199.486 689.259 110.595C686.684 97.5098 665.271 101.162 667.876 114.244C676.616 158.712 674.95 203.098 656.211 243.831C638.728 281.863 608.477 313.067 575.17 339.408C504.321 395.462 414.894 418.66 336.445 463.345C239.135 518.791 164.751 606.991 141.154 713.565C122.187 799.252 133.547 894.934 175.672 976.434C181.945 988.566 201.329 979.896 195.077 967.783Z" fill="#252422"/>
<defs>
<clipPath id="clip0">
<rect width="1085.38" height="637.069" fill="white" transform="matrix(0 -1 -1 0 637.499 1520.8)"/>
</clipPath>
</defs>
</svg>
